<?xml version="1.0" encoding="iso-8859-1"?>
<!-- Generator: Adobe Illustrator 19.0.0, SVG Export Plug-In . SVG Version: 6.00 Build 0)  -->
<svg version="1.1" id="Layer_1" xmlns="http://www.w3.org/2000/svg" xmlns:xlink="http://www.w3.org/1999/xlink" x="0px" y="0px"
	 viewBox="0 0 512 512" style="enable-background:new 0 0 512 512;" xml:space="preserve">
<g>
	<g>
		<g>
			<path d="M496.317,269.022L496.317,269.022c0,35.142-28.591,63.733-63.733,63.733H106.632v15.683h325.951
				c43.791,0,79.416-35.625,79.416-79.416v-39.764h-15.683V269.022z"/>
			<rect x="66.869" y="332.75" width="31.811" height="15.683"/>
			<polygon points="58.917,348.438 58.917,332.755 30.02,332.755 80.367,282.409 69.277,271.319 0,340.597 69.277,409.874 
				80.367,398.784 30.02,348.438 			"/>
			<path d="M496.317,181.543H512c0-43.791-35.625-79.416-79.416-79.416H392.82v15.683h39.764
				C467.726,117.809,496.317,146.399,496.317,181.543z"/>
			<rect x="496.313" y="189.492" width="15.683" height="31.811"/>
		</g>
	</g>
</g>
<g>
</g>
<g>
</g>
<g>
</g>
<g>
</g>
<g>
</g>
<g>
</g>
<g>
</g>
<g>
</g>
<g>
</g>
<g>
</g>
<g>
</g>
<g>
</g>
<g>
</g>
<g>
</g>
<g>
</g>
</svg>
