<?xml version="1.0" encoding="iso-8859-1"?>
<svg version="1.1" id="Layer_1" xmlns="http://www.w3.org/2000/svg" xmlns:xlink="http://www.w3.org/1999/xlink" x="0px" y="0px"
	 viewBox="0 0 490 490" style="enable-background:new 0 0 490 490;" xml:space="preserve">
<g>
	<g id="XMLID_25_">
		<g>
			<path style="fill:#231F20;" d="M439.976,100c-0.001-2.602-0.993-5.159-2.905-7.071l-90-90c-1.913-1.912-4.47-2.904-7.071-2.905V0
				H60c-5.523,0-10,4.477-10,10v470c0,5.523,4.477,10,10,10h370c5.523,0,10-4.477,10-10V100H439.976z M350,34.142L405.858,90H350
				V34.142z M70,470V20h260v80c0,5.523,4.477,10,10,10h80v360H70z"/>
			<rect x="130" y="160" style="fill:#231F20;" width="260" height="20"/>
			<rect x="100" y="220" style="fill:#231F20;" width="290" height="20"/>
			<rect x="100" y="280" style="fill:#231F20;" width="290" height="20"/>
			<rect x="100" y="340" style="fill:#231F20;" width="290" height="20"/>
			<rect x="100" y="400" style="fill:#231F20;" width="230" height="20"/>
			<rect x="355" y="400" style="fill:#231F20;" width="35" height="20"/>
			<rect x="100" y="45" style="fill:#231F20;" width="60" height="20"/>
			<rect x="100" y="80" style="fill:#231F20;" width="120" height="20"/>
		</g>
	</g>
</g>
<g>
</g>
<g>
</g>
<g>
</g>
<g>
</g>
<g>
</g>
<g>
</g>
<g>
</g>
<g>
</g>
<g>
</g>
<g>
</g>
<g>
</g>
<g>
</g>
<g>
</g>
<g>
</g>
<g>
</g>
</svg>
