<?xml version="1.0" encoding="iso-8859-1"?>
<svg version="1.1" id="Capa_1" xmlns="http://www.w3.org/2000/svg" xmlns:xlink="http://www.w3.org/1999/xlink" x="0px" y="0px"
	 viewBox="0 0 196.264 196.264" style="enable-background:new 0 0 196.264 196.264;" xml:space="preserve">
<g>
	<g>
		<path style="fill:#010002;" d="M191.277,93.136L173.182,0H27.953L4.984,93.315v2.645v28.438v5.132v28.434v4.731v33.57h186.297
			v-33.57v-4.731v-28.434v-5.132V95.96v-2.824H191.277z M31.653,4.724h137.628l16.813,86.501H10.366L31.653,4.724z M186.546,191.54
			H9.715v-28.846h176.831V191.54z M186.546,157.963H9.715v-28.434h176.831V157.963z M186.546,124.397H9.715V95.96h176.831V124.397z"
			/>
		<path style="fill:#010002;" d="M163.398,117.419c4.638,0,8.407-3.769,8.407-8.407c0-4.638-3.769-8.41-8.407-8.41
			c-4.638,0-8.41,3.772-8.41,8.41C154.988,113.65,158.76,117.419,163.398,117.419z M163.398,105.329
			c2.026,0,3.679,1.657,3.679,3.683c0,2.026-1.653,3.679-3.679,3.679c-2.026,0-3.683-1.653-3.683-3.679
			C159.715,106.986,161.372,105.329,163.398,105.329z"/>
		<path style="fill:#010002;" d="M163.398,151.818c4.638,0,8.407-3.772,8.407-8.41c0-4.638-3.769-8.414-8.407-8.414
			c-4.638,0-8.41,3.776-8.41,8.414C154.988,148.046,158.76,151.818,163.398,151.818z M163.398,139.729
			c2.026,0,3.679,1.646,3.679,3.679c0,2.026-1.653,3.683-3.679,3.683c-2.026,0-3.683-1.657-3.683-3.683
			C159.715,141.375,161.372,139.729,163.398,139.729z"/>
		<path style="fill:#010002;" d="M163.398,184.343c4.638,0,8.407-3.772,8.407-8.41s-3.769-8.407-8.407-8.407
			c-4.638,0-8.41,3.769-8.41,8.407S158.76,184.343,163.398,184.343z M163.398,172.254c2.026,0,3.679,1.653,3.679,3.679
			s-1.653,3.683-3.679,3.683c-2.026,0-3.683-1.657-3.683-3.683S161.372,172.254,163.398,172.254z"/>
		<rect x="17.903" y="102.964" style="fill:#010002;" width="43.73" height="6.048"/>
		<rect x="17.903" y="134.343" style="fill:#010002;" width="43.73" height="6.048"/>
		<rect x="17.903" y="166.871" style="fill:#010002;" width="43.73" height="6.045"/>
	</g>
</g>
<g>
</g>
<g>
</g>
<g>
</g>
<g>
</g>
<g>
</g>
<g>
</g>
<g>
</g>
<g>
</g>
<g>
</g>
<g>
</g>
<g>
</g>
<g>
</g>
<g>
</g>
<g>
</g>
<g>
</g>
</svg>
