<?xml version="1.0" encoding="UTF-8"?>
<svg id="Livello_2" data-name="Livello 2" xmlns="http://www.w3.org/2000/svg" xmlns:xlink="http://www.w3.org/1999/xlink" viewBox="0 0 848.5 234">
  <defs>
    <style>
      .cls-1, .cls-2 {
        fill: none;
      }

      .cls-2 {
        filter: url(#drop-shadow-1);
      }

      .cls-3 {
        fill: url(#Sfumatura_senza_nome_28);
      }

      .cls-4 {
        fill: #03045e;
      }

      .cls-5 {
        fill: #fff;
      }

      .cls-6 {
        fill: #007abb;
      }
    </style>
    <linearGradient id="Sfumatura_senza_nome_28" data-name="Sfumatura senza nome 28" x1="-12.67" y1="-14.29" x2="211.26" y2="208.7" gradientUnits="userSpaceOnUse">
      <stop offset="0" stop-color="#caf0f6"/>
      <stop offset=".1" stop-color="#a3d8e9"/>
      <stop offset=".26" stop-color="#72bbda"/>
      <stop offset=".41" stop-color="#49a2cd"/>
      <stop offset=".56" stop-color="#298fc3"/>
      <stop offset=".7" stop-color="#1282bb"/>
      <stop offset=".83" stop-color="#0479b7"/>
      <stop offset=".95" stop-color="#0077b6"/>
    </linearGradient>
    <filter id="drop-shadow-1" x="0" y="0" width="241" height="234" filterUnits="userSpaceOnUse">
      <feOffset dx=".67" dy="-.67"/>
      <feGaussianBlur result="blur" stdDeviation="1.35"/>
      <feFlood flood-color="#000" flood-opacity=".65"/>
      <feComposite in2="blur" operator="in"/>
      <feComposite in="SourceGraphic"/>
    </filter>
  </defs>
  <g id="Livello_1-2" data-name="Livello 1">
    <g>
      <g>
        <rect class="cls-3" x="3.5" y="5.2" width="232.27" height="224.53" rx="67.79" ry="67.79"/>
        <rect class="cls-2" x="3.5" y="5.2" width="232.27" height="224.53" rx="67.79" ry="67.79"/>
      </g>
      <g>
        <path class="cls-5" d="M119.64,29.17c10.76,0,19.48,8.72,19.48,19.48s-8.72,19.48-19.48,19.48-19.48-8.72-19.48-19.48,8.72-19.48,19.48-19.48M119.64,19.75c-15.93,0-28.9,12.96-28.9,28.9s12.96,28.9,28.9,28.9,28.9-12.96,28.9-28.9-12.96-28.9-28.9-28.9h0Z"/>
        <path class="cls-5" d="M48.11,81.4c10.76,0,19.48,8.72,19.48,19.48s-8.72,19.48-19.48,19.48-19.48-8.72-19.48-19.48,8.72-19.48,19.48-19.48M48.11,71.99c-15.93,0-28.9,12.96-28.9,28.9s12.96,28.9,28.9,28.9,28.9-12.96,28.9-28.9-12.96-28.9-28.9-28.9h0Z"/>
        <path class="cls-5" d="M190.84,81.4c10.76,0,19.48,8.72,19.48,19.48s-8.72,19.48-19.48,19.48-19.48-8.72-19.48-19.48,8.72-19.48,19.48-19.48M190.84,71.99c-15.93,0-28.9,12.96-28.9,28.9s12.96,28.9,28.9,28.9,28.9-12.96,28.9-28.9-12.96-28.9-28.9-28.9h0Z"/>
        <path class="cls-5" d="M75.6,165.73c10.76,0,19.48,8.72,19.48,19.48s-8.72,19.48-19.48,19.48-19.48-8.72-19.48-19.48,8.72-19.48,19.48-19.48M75.6,156.32c-15.93,0-28.9,12.96-28.9,28.9s12.96,28.9,28.9,28.9,28.9-12.96,28.9-28.9-12.96-28.9-28.9-28.9h0Z"/>
        <path class="cls-5" d="M163.95,165.73c10.76,0,19.48,8.72,19.48,19.48s-8.72,19.48-19.48,19.48-19.48-8.72-19.48-19.48,8.72-19.48,19.48-19.48M163.95,156.32c-15.93,0-28.9,12.96-28.9,28.9s12.96,28.9,28.9,28.9,28.9-12.96,28.9-28.9-12.96-28.9-28.9-28.9h0Z"/>
      </g>
      <g>
        <polygon class="cls-1" points="144.29 91.43 94.99 91.43 79.75 138.32 119.64 167.3 159.53 138.32 144.29 91.43"/>
        <circle class="cls-4" cx="144.29" cy="91.43" r="8.22"/>
        <circle class="cls-4" cx="159.53" cy="138.32" r="8.22"/>
        <circle class="cls-4" cx="79.75" cy="138.32" r="8.22"/>
        <circle class="cls-4" cx="94.99" cy="91.43" r="8.22"/>
        <circle class="cls-4" cx="119.64" cy="167.3" r="8.22"/>
      </g>
    </g>
    <g>
      <path class="cls-6" d="M270,164.01c-2.2,0-3.92-.62-5.16-1.86-1.24-1.24-1.86-3.03-1.86-5.37v-61.35c0-2.34.62-4.13,1.86-5.37,1.24-1.24,3.03-1.86,5.37-1.86h37.11c1.84,0,3.22.46,4.15,1.38.92.92,1.38,2.23,1.38,3.93s-.46,3.14-1.38,4.09c-.92.96-2.3,1.44-4.15,1.44h-30.73v21.16h28.49c1.77,0,3.14.46,4.09,1.38.96.92,1.44,2.23,1.44,3.93s-.48,3.14-1.44,4.09c-.96.96-2.32,1.44-4.09,1.44h-28.49v25.73c0,4.82-2.2,7.23-6.59,7.23Z"/>
      <path class="cls-6" d="M345.17,164.22c-5.88,0-10.95-1.1-15.2-3.3-4.25-2.19-7.53-5.31-9.83-9.36-2.3-4.04-3.46-8.83-3.46-14.35s1.12-10.1,3.35-14.14c2.23-4.04,5.32-7.21,9.25-9.52,3.93-2.3,8.42-3.46,13.45-3.46,3.68,0,7,.6,9.94,1.81,2.94,1.2,5.46,2.94,7.55,5.21,2.09,2.27,3.68,5.01,4.78,8.24,1.1,3.23,1.65,6.86,1.65,10.9,0,1.28-.44,2.25-1.33,2.92-.89.67-2.15,1.01-3.77,1.01h-34.13v-7.65h29.88l-1.7,1.59c0-3.26-.48-5.99-1.43-8.19-.96-2.2-2.34-3.88-4.15-5.05-1.81-1.17-4.06-1.76-6.75-1.76-2.98,0-5.51.69-7.6,2.07-2.09,1.38-3.69,3.33-4.78,5.85-1.1,2.52-1.65,5.51-1.65,8.99v.74c0,5.81,1.36,10.15,4.09,13.02,2.73,2.87,6.75,4.31,12.07,4.31,1.84,0,3.92-.23,6.22-.69,2.3-.46,4.48-1.26,6.54-2.39,1.49-.85,2.8-1.22,3.93-1.12,1.13.11,2.04.52,2.71,1.22.67.71,1.08,1.58,1.22,2.6.14,1.03-.05,2.07-.58,3.14s-1.43,1.98-2.71,2.76c-2.48,1.56-5.33,2.71-8.56,3.46-3.23.74-6.22,1.12-8.98,1.12Z"/>
      <path class="cls-6" d="M397.17,164.22c-4.54,0-8.52-1.1-11.96-3.3-3.44-2.19-6.11-5.33-8.03-9.41-1.91-4.08-2.87-8.88-2.87-14.41s.96-10.4,2.87-14.41c1.91-4,4.59-7.11,8.03-9.3,3.44-2.2,7.42-3.3,11.96-3.3s8.1,1.06,11.32,3.19c3.22,2.13,5.4,4.93,6.54,8.4h-1.17v-27.64c0-2.2.57-3.86,1.7-5,1.13-1.13,2.76-1.7,4.89-1.7s3.77.57,4.94,1.7c1.17,1.13,1.75,2.8,1.75,5v63.16c0,2.2-.57,3.88-1.7,5.05-1.13,1.17-2.76,1.76-4.89,1.76s-3.76-.58-4.89-1.76c-1.13-1.17-1.7-2.85-1.7-5.05v-8.29l1.17,3.19c-1.06,3.69-3.23,6.63-6.49,8.82-3.26,2.2-7.09,3.3-11.48,3.3ZM400.89,154.12c2.62,0,4.93-.64,6.91-1.91,1.98-1.28,3.53-3.17,4.63-5.69,1.1-2.51,1.65-5.65,1.65-9.41,0-5.67-1.21-9.9-3.62-12.71-2.41-2.8-5.6-4.2-9.57-4.2-2.62,0-4.93.62-6.91,1.86-1.98,1.24-3.53,3.12-4.62,5.63-1.1,2.52-1.65,5.65-1.65,9.41,0,5.6,1.2,9.83,3.61,12.7,2.41,2.87,5.6,4.31,9.57,4.31Z"/>
      <path class="cls-6" d="M445.86,139.98c-1.56,0-2.85-.51-3.88-1.54-1.03-1.03-1.54-2.29-1.54-3.77s.51-2.83,1.54-3.83c1.03-.99,2.32-1.49,3.88-1.49h22.65c1.49,0,2.75.5,3.77,1.49,1.03.99,1.54,2.27,1.54,3.83s-.52,2.75-1.54,3.77c-1.03,1.03-2.29,1.54-3.77,1.54h-22.65Z"/>
      <path class="cls-6" d="M495.62,163.16c-2.34,0-4.13-.62-5.37-1.86-1.24-1.24-1.86-3.03-1.86-5.37v-60.5c0-2.34.62-4.13,1.86-5.37,1.24-1.24,3.03-1.86,5.37-1.86h25.52c5.24,0,9.71.78,13.4,2.34,3.68,1.56,6.5,3.79,8.45,6.7,1.95,2.91,2.92,6.38,2.92,10.42,0,4.54-1.31,8.37-3.93,11.48-2.62,3.12-6.2,5.21-10.74,6.27v-1.6c5.24.78,9.32,2.76,12.23,5.95,2.91,3.19,4.36,7.34,4.36,12.44,0,6.66-2.25,11.82-6.75,15.47-4.5,3.65-10.76,5.48-18.77,5.48h-26.69ZM501.47,119.99h17.33c4.68,0,8.17-.9,10.47-2.71,2.3-1.81,3.46-4.48,3.46-8.03s-1.15-6.22-3.46-8.03c-2.3-1.81-5.8-2.71-10.47-2.71h-17.33v21.48ZM501.47,152.84h19.14c4.82,0,8.36-.94,10.63-2.82,2.27-1.88,3.4-4.69,3.4-8.45s-1.13-6.66-3.4-8.51c-2.27-1.84-5.81-2.76-10.63-2.76h-19.14v22.54Z"/>
      <path class="cls-6" d="M566.85,100.53c-2.48,0-4.41-.62-5.8-1.86-1.38-1.24-2.07-2.96-2.07-5.16s.69-4,2.07-5.21c1.38-1.2,3.31-1.81,5.8-1.81s4.5.6,5.85,1.81c1.35,1.21,2.02,2.94,2.02,5.21s-.67,3.92-2.02,5.16c-1.35,1.24-3.3,1.86-5.85,1.86ZM566.85,163.9c-2.13,0-3.76-.64-4.89-1.91-1.14-1.28-1.7-3.05-1.7-5.32v-39.02c0-2.34.57-4.13,1.7-5.37,1.13-1.24,2.76-1.86,4.89-1.86s3.77.62,4.94,1.86c1.17,1.24,1.75,3.03,1.75,5.37v39.02c0,2.27-.57,4.04-1.7,5.32-1.13,1.28-2.8,1.91-5,1.91Z"/>
      <path class="cls-6" d="M611.08,164.22c-5.39,0-10.07-1.1-14.03-3.3-3.97-2.19-7.05-5.33-9.25-9.41-2.2-4.08-3.3-8.88-3.3-14.41,0-4.18.62-7.92,1.86-11.22,1.24-3.3,3.03-6.13,5.37-8.51,2.34-2.37,5.14-4.18,8.4-5.42,3.26-1.24,6.91-1.86,10.95-1.86,5.39,0,10.06,1.1,14.03,3.3,3.97,2.2,7.05,5.32,9.25,9.36,2.2,4.04,3.3,8.82,3.3,14.35,0,4.18-.62,7.94-1.86,11.27-1.24,3.33-3.03,6.19-5.37,8.56-2.34,2.38-5.14,4.18-8.4,5.42-3.26,1.24-6.91,1.86-10.95,1.86ZM611.08,154.12c2.62,0,4.93-.64,6.91-1.91,1.98-1.28,3.53-3.17,4.63-5.69,1.1-2.51,1.65-5.65,1.65-9.41,0-5.67-1.21-9.9-3.62-12.71-2.41-2.8-5.6-4.2-9.57-4.2-2.62,0-4.93.62-6.91,1.86-1.98,1.24-3.53,3.12-4.62,5.63-1.1,2.52-1.65,5.65-1.65,9.41,0,5.6,1.2,9.83,3.61,12.7,2.41,2.87,5.6,4.31,9.57,4.31Z"/>
      <path class="cls-6" d="M656.27,164.01c-1.98,0-3.51-.57-4.57-1.7-1.06-1.13-1.59-2.69-1.59-4.68v-63.9c0-2.05.57-3.63,1.7-4.73,1.13-1.1,2.69-1.65,4.68-1.65,1.77,0,3.17.34,4.2,1.01,1.03.67,1.97,1.82,2.82,3.45l26.26,48.59h-3.4l26.26-48.59c.85-1.63,1.77-2.78,2.76-3.45.99-.67,2.37-1.01,4.15-1.01,1.98,0,3.51.55,4.57,1.65,1.06,1.1,1.59,2.68,1.59,4.73v63.9c0,1.99-.52,3.55-1.54,4.68-1.03,1.13-2.57,1.7-4.62,1.7s-3.51-.57-4.57-1.7c-1.06-1.13-1.6-2.69-1.6-4.68v-49.23h2.34l-22.33,40.72c-.71,1.2-1.45,2.09-2.23,2.66-.78.57-1.84.85-3.19.85s-2.45-.3-3.3-.9c-.85-.6-1.59-1.47-2.23-2.6l-22.54-40.83h2.55v49.33c0,1.99-.51,3.55-1.54,4.68-1.03,1.13-2.57,1.7-4.63,1.7Z"/>
      <path class="cls-6" d="M766.52,164.22c-5.88,0-10.95-1.1-15.2-3.3-4.25-2.19-7.53-5.31-9.83-9.36-2.3-4.04-3.46-8.83-3.46-14.35s1.12-10.1,3.35-14.14c2.23-4.04,5.32-7.21,9.25-9.52,3.93-2.3,8.42-3.46,13.45-3.46,3.68,0,7,.6,9.94,1.81,2.94,1.2,5.46,2.94,7.55,5.21,2.09,2.27,3.68,5.01,4.78,8.24,1.1,3.23,1.65,6.86,1.65,10.9,0,1.28-.44,2.25-1.33,2.92-.89.67-2.15,1.01-3.77,1.01h-34.13v-7.65h29.88l-1.7,1.59c0-3.26-.48-5.99-1.43-8.19-.96-2.2-2.34-3.88-4.15-5.05-1.81-1.17-4.06-1.76-6.75-1.76-2.98,0-5.51.69-7.6,2.07-2.09,1.38-3.69,3.33-4.78,5.85-1.1,2.52-1.65,5.51-1.65,8.99v.74c0,5.81,1.36,10.15,4.09,13.02,2.73,2.87,6.75,4.31,12.07,4.31,1.84,0,3.92-.23,6.22-.69,2.3-.46,4.48-1.26,6.54-2.39,1.49-.85,2.8-1.22,3.93-1.12,1.13.11,2.04.52,2.71,1.22.67.71,1.08,1.58,1.22,2.6.14,1.03-.05,2.07-.58,3.14-.53,1.06-1.43,1.98-2.71,2.76-2.48,1.56-5.33,2.71-8.56,3.46-3.23.74-6.22,1.12-8.98,1.12Z"/>
      <path class="cls-6" d="M818.51,164.22c-4.54,0-8.52-1.1-11.96-3.3-3.44-2.19-6.11-5.33-8.03-9.41-1.91-4.08-2.87-8.88-2.87-14.41s.96-10.4,2.87-14.41c1.91-4,4.59-7.11,8.03-9.3,3.44-2.2,7.42-3.3,11.96-3.3s8.1,1.06,11.32,3.19c3.22,2.13,5.4,4.93,6.54,8.4h-1.17v-27.64c0-2.2.57-3.86,1.7-5,1.13-1.13,2.76-1.7,4.89-1.7s3.77.57,4.94,1.7c1.17,1.13,1.75,2.8,1.75,5v63.16c0,2.2-.57,3.88-1.7,5.05-1.13,1.17-2.76,1.76-4.89,1.76s-3.76-.58-4.89-1.76c-1.13-1.17-1.7-2.85-1.7-5.05v-8.29l1.17,3.19c-1.06,3.69-3.23,6.63-6.49,8.82-3.26,2.2-7.09,3.3-11.48,3.3ZM822.23,154.12c2.62,0,4.93-.64,6.91-1.91,1.98-1.28,3.53-3.17,4.63-5.69,1.1-2.51,1.65-5.65,1.65-9.41,0-5.67-1.21-9.9-3.62-12.71-2.41-2.8-5.6-4.2-9.57-4.2-2.62,0-4.93.62-6.91,1.86-1.98,1.24-3.53,3.12-4.62,5.63-1.1,2.52-1.65,5.65-1.65,9.41,0,5.6,1.2,9.83,3.61,12.7,2.41,2.87,5.6,4.31,9.57,4.31Z"/>
    </g>
  </g>
</svg>