<?xml version="1.0" encoding="iso-8859-1"?>
<!-- Generator: Adobe Illustrator 19.0.0, SVG Export Plug-In . SVG Version: 6.00 Build 0)  -->
<svg version="1.1" id="Layer_1" xmlns="http://www.w3.org/2000/svg" xmlns:xlink="http://www.w3.org/1999/xlink" x="0px" y="0px"
	 viewBox="0 0 512 512" style="enable-background:new 0 0 512 512;" xml:space="preserve">
<g transform="translate(1 1)">
	<g>
		<g>
			<path d="M220.989,41.667c5.12,0,8.533-3.413,8.533-8.533v-25.6c0-5.12-3.413-8.533-8.533-8.533c-5.12,0-8.533,3.413-8.533,8.533
				v25.6C212.456,38.253,215.869,41.667,220.989,41.667z"/>
			<path d="M127.976,101.4h25.6c4.267,0,8.533-3.413,8.533-8.533c0-5.12-3.413-8.533-8.533-8.533h-25.6
				c-5.12,0-8.533,3.413-8.533,8.533C119.443,97.987,122.856,101.4,127.976,101.4z"/>
			<path d="M272.189,92.867c0,5.12,3.413,8.533,8.533,8.533h25.6c4.267,0,8.533-3.413,8.533-8.533c0-5.12-3.413-8.533-8.533-8.533
				h-25.6C275.603,84.333,272.189,87.747,272.189,92.867z"/>
			<path d="M263.656,58.733c2.56,0,4.267-0.853,5.973-2.56l17.067-17.067c3.413-3.413,3.413-8.533,0-11.947s-8.533-3.413-11.947,0
				l-17.067,17.067c-3.413,3.413-3.413,8.533,0,11.947C259.389,57.88,261.096,58.733,263.656,58.733z"/>
			<path d="M164.669,56.173c1.707,1.707,3.413,2.56,5.973,2.56c1.707,0,4.267-0.853,5.973-2.56c3.413-3.413,3.413-8.533,0-11.947
				L159.549,27.16c-3.413-3.413-8.533-3.413-11.947,0c-3.413,3.413-3.413,8.533,0,11.947L164.669,56.173z"/>
			<path d="M395.923,229.4c-7.68,0-15.36,2.56-21.333,6.827v-2.56c0-21.333-17.067-38.4-38.4-38.4c-7.68,0-15.36,2.56-21.333,6.827
				v-2.56c0-21.333-17.067-38.4-38.4-38.4c-7.68,0-15.36,2.56-21.333,6.827V97.987c0-21.333-17.067-39.253-38.4-39.253
				c-21.333,0-38.4,17.92-38.4,39.253v168.96c-17.92-26.453-53.76-40.107-81.067-29.013c-4.267,1.707-7.68,4.267-10.24,5.12
				c-11.947,8.533-11.093,17.92-11.093,21.333c-0.853,5.12,0,5.973,11.093,18.773c12.8,15.36,40.107,47.787,57.173,80.213
				c0.853,0.853,20.48,32.427,42.667,57.173v22.187c0,40.107,31.573,68.267,76.8,68.267h75.947c35.84,0,64-20.48,70.827-52.053
				c1.893-8.836,3.786-13.93,5.334-16.679c0.493-0.671,0.989-1.367,1.493-2.095c7.68-8.533,17.067-29.867,17.067-58.88V267.8
				C434.323,246.467,417.256,229.4,395.923,229.4z M339.603,493.933h-75.947c-29.867,0-59.733-16.213-59.733-51.2v-2.303
				c2.429,2.571,4.985,5.065,7.68,7.423c0.853,0.853,3.413,1.707,5.12,1.707c2.56,0,4.267-1.707,5.973-3.413
				c3.413-3.413,2.56-8.533-0.853-11.947c-5.973-5.12-10.24-11.093-15.36-17.067c-0.853-1.707-2.56-4.267-4.267-5.973
				c-0.711-0.948-1.69-1.69-2.8-2.206c-20.665-23.682-40.72-54.967-40.72-54.967c-17.92-33.28-46.08-66.56-58.88-82.773
				c-2.56-2.56-5.12-5.973-6.827-7.68c0-1.707,0-3.413,3.413-5.973c3.413-1.707,5.12-2.56,6.827-3.413
				c18.773-7.68,50.347,2.56,64,26.453l10.797,17.995c0.129,1.121,0.501,2.257,1.15,3.338L187.709,319
				c1.707,2.56,4.267,4.267,7.68,4.267c1.707,0,3.413,0,3.413-0.853c4.267-1.707,5.973-6.827,3.413-11.093l-6.827-13.653V97.987
				c0-11.947,10.24-22.187,21.333-22.187c11.947,0,21.333,10.24,21.333,22.187v99.84c0,0,0,0.853,0,1.707v4.267v102.4
				c0,5.12,3.413,8.533,8.533,8.533s8.533-3.413,8.533-8.533V203.8v-5.973c0.853-11.093,10.24-19.627,21.333-19.627
				c11.947,0,21.333,9.387,21.333,21.333V229.4v4.267v64c0,5.12,3.413,8.533,8.533,8.533s8.533-3.413,8.533-8.533v-64
				c0-11.947,9.387-21.333,21.333-21.333s21.333,9.387,21.333,21.333v29.867v4.267v30.72c0,5.12,3.413,8.533,8.533,8.533
				s8.533-3.413,8.533-8.533V267.8c0-11.947,9.387-21.333,21.333-21.333c11.947,0,21.333,9.387,21.333,21.333v112.64
				c0,25.88-8.165,42.769-12.514,48.283c-0.418,0.359-0.802,0.761-1.139,1.21c-5.12,6.827-6.827,9.387-23.04,13.653
				c-4.267,0.853-6.827,5.973-5.973,10.24c1.707,3.413,5.12,5.973,8.533,5.973c0.853,0,1.707,0,1.707,0.853
				c2.91-0.794,5.511-1.567,7.859-2.348C385.615,484.366,360.22,493.933,339.603,493.933z"/>
		</g>
	</g>
</g>
<g>
</g>
<g>
</g>
<g>
</g>
<g>
</g>
<g>
</g>
<g>
</g>
<g>
</g>
<g>
</g>
<g>
</g>
<g>
</g>
<g>
</g>
<g>
</g>
<g>
</g>
<g>
</g>
<g>
</g>
</svg>
