<?xml version="1.0" encoding="iso-8859-1"?>
<!-- Generator: Adobe Illustrator 19.0.0, SVG Export Plug-In . SVG Version: 6.00 Build 0)  -->
<svg version="1.1" id="Layer_1" xmlns="http://www.w3.org/2000/svg" xmlns:xlink="http://www.w3.org/1999/xlink" x="0px" y="0px"
	 viewBox="0 0 512 512" style="enable-background:new 0 0 512 512;" xml:space="preserve">
<g>
	<g>
		<g>
			<path d="M88.068,0v512h235.399l100.464-108.836V0H88.068z M327.856,484.226v-76.308h70.438L327.856,484.226z M408.317,392.305
				L408.317,392.305h-96.075v104.081H103.682V15.613h304.636V392.305z"/>
			<rect x="143.913" y="56.043" width="224.175" height="15.613"/>
			<rect x="215.973" y="96.074" width="80.062" height="15.613"/>
			<rect x="191.95" y="136.106" width="176.139" height="15.613"/>
			<rect x="143.913" y="136.106" width="32.025" height="15.613"/>
			<rect x="191.95" y="176.139" width="176.139" height="15.613"/>
			<rect x="143.913" y="176.139" width="32.025" height="15.613"/>
			<rect x="191.95" y="216.171" width="176.139" height="15.613"/>
			<rect x="143.913" y="216.171" width="32.025" height="15.613"/>
			<rect x="191.95" y="256.203" width="176.139" height="15.613"/>
			<rect x="143.913" y="256.203" width="32.025" height="15.613"/>
			<rect x="191.95" y="296.236" width="176.139" height="15.613"/>
			<rect x="143.913" y="296.236" width="32.025" height="15.613"/>
			<rect x="191.95" y="336.258" width="176.139" height="15.613"/>
			<rect x="143.913" y="336.258" width="32.025" height="15.613"/>
			<rect x="143.913" y="440.346" width="16.013" height="15.613"/>
			<rect x="175.941" y="440.346" width="16.013" height="15.613"/>
			<rect x="207.958" y="440.346" width="16.012" height="15.613"/>
		</g>
	</g>
</g>
<g>
</g>
<g>
</g>
<g>
</g>
<g>
</g>
<g>
</g>
<g>
</g>
<g>
</g>
<g>
</g>
<g>
</g>
<g>
</g>
<g>
</g>
<g>
</g>
<g>
</g>
<g>
</g>
<g>
</g>
</svg>
